<svg xmlns="http://www.w3.org/2000/svg" width="121" height="23"><path fill-rule="evenodd" fill="#28282D" d="M115.806 21.936V1.146h4.68v20.79h-4.68Zm-12.99.42c-.92 0-1.75-.055-2.49-.165a16.07 16.07 0 0 1-1.965-.405c-.57-.16-1.06-.33-1.47-.51-.41-.18-.755-.35-1.035-.51l1.32-3.72c.62.34 1.385.645 2.295.915.91.27 2.025.405 3.345.405.66 0 1.205-.055 1.635-.165.43-.11.775-.26 1.035-.45.26-.19.44-.415.54-.675.1-.26.15-.55.15-.87 0-.68-.32-1.245-.96-1.695-.64-.45-1.74-.935-3.3-1.455-.68-.24-1.36-.515-2.04-.825a7.52 7.52 0 0 1-1.83-1.17c-.54-.47-.98-1.04-1.32-1.71-.34-.67-.51-1.485-.51-2.445 0-.96.18-1.825.54-2.595a5.54 5.54 0 0 1 1.53-1.965c.66-.54 1.46-.955 2.4-1.245.94-.29 2-.435 3.18-.435 1.4 0 2.61.15 3.63.45 1.02.3 1.86.63 2.52.99l-1.35 3.69c-.58-.3-1.225-.565-1.935-.795-.71-.23-1.565-.345-2.565-.345-1.12 0-1.925.155-2.415.465-.49.31-.735.785-.735 1.425 0 .38.09.7.27.96.18.26.435.495.765.705.33.21.71.4 1.14.57.43.17.905.345 1.425.525 1.08.4 2.02.795 2.82 1.185.8.39 1.465.845 1.995 1.365s.925 1.13 1.185 1.83c.26.7.39 1.55.39 2.55 0 1.94-.68 3.445-2.04 4.515-1.36 1.07-3.41 1.605-6.15 1.605Zm-13.739-2.745a8.93 8.93 0 0 1-3.285 2.055c-1.271.46-2.636.69-4.095.69-1.421 0-2.76-.23-4.02-.69a9.243 9.243 0 0 1-3.3-2.055c-.941-.91-1.68-2.04-2.22-3.39-.54-1.35-.81-2.915-.81-4.695 0-1.78.28-3.345.84-4.695.559-1.35 1.315-2.485 2.265-3.405a9.306 9.306 0 0 1 3.3-2.07c1.249-.46 2.565-.69 3.945-.69 1.42 0 2.76.23 4.02.69a9.15 9.15 0 0 1 3.3 2.07c.94.92 1.68 2.055 2.22 3.405.54 1.35.81 2.915.81 4.695 0 1.78-.266 3.345-.795 4.695-.53 1.35-1.256 2.48-2.175 3.39Zm-2.235-10.86c-.251-.83-.611-1.54-1.08-2.13a4.747 4.747 0 0 0-1.74-1.365c-.69-.32-1.466-.48-2.325-.48-.881 0-1.661.165-2.34.495a4.92 4.92 0 0 0-1.725 1.38c-.47.59-.83 1.3-1.08 2.13-.251.83-.375 1.745-.375 2.745 0 1.02.124 1.94.375 2.76.25.82.61 1.525 1.08 2.115a4.771 4.771 0 0 0 1.725 1.365c.679.32 1.459.48 2.34.48.859 0 1.635-.16 2.325-.48.69-.32 1.27-.775 1.74-1.365.469-.59.829-1.295 1.08-2.115.25-.82.375-1.74.375-2.76 0-1.02-.125-1.945-.375-2.775Zm-22.665 10.86a8.93 8.93 0 0 1-3.285 2.055c-1.27.46-2.635.69-4.095.69-1.42 0-2.76-.23-4.02-.69a9.243 9.243 0 0 1-3.3-2.055c-.94-.91-1.68-2.04-2.22-3.39-.54-1.35-.81-2.915-.81-4.695 0-1.78.28-3.345.84-4.695.56-1.35 1.315-2.485 2.265-3.405.95-.92 2.05-1.61 3.3-2.07 1.25-.46 2.565-.69 3.945-.69 1.42 0 2.76.23 4.02.69 1.26.46 2.36 1.15 3.3 2.07.94.92 1.68 2.055 2.22 3.405.54 1.35.81 2.915.81 4.695 0 1.78-.265 3.345-.795 4.695s-1.255 2.48-2.175 3.39Zm-2.235-10.86c-.25-.83-.61-1.54-1.08-2.13a4.747 4.747 0 0 0-1.74-1.365c-.69-.32-1.465-.48-2.325-.48-.88 0-1.66.165-2.34.495a4.93 4.93 0 0 0-1.725 1.38c-.47.59-.83 1.3-1.08 2.13-.25.83-.375 1.745-.375 2.745 0 1.02.125 1.94.375 2.76.25.82.61 1.525 1.08 2.115a4.78 4.78 0 0 0 1.725 1.365c.68.32 1.46.48 2.34.48.86 0 1.635-.16 2.325-.48.69-.32 1.27-.775 1.74-1.365s.83-1.295 1.08-2.115c.25-.82.375-1.74.375-2.76 0-1.02-.125-1.945-.375-2.775Zm-22.665 10.86a8.93 8.93 0 0 1-3.285 2.055c-1.27.46-2.635.69-4.095.69-1.42 0-2.76-.23-4.02-.69a9.243 9.243 0 0 1-3.3-2.055c-.94-.91-1.68-2.04-2.22-3.39-.54-1.35-.81-2.915-.81-4.695 0-1.78.28-3.345.84-4.695.56-1.35 1.315-2.485 2.265-3.405.95-.92 2.05-1.61 3.3-2.07 1.25-.46 2.565-.69 3.945-.69 1.42 0 2.76.23 4.02.69 1.26.46 2.36 1.15 3.3 2.07.94.92 1.68 2.055 2.22 3.405.54 1.35.81 2.915.81 4.695 0 1.78-.265 3.345-.795 4.695s-1.255 2.48-2.175 3.39Zm-2.235-10.86c-.25-.83-.61-1.54-1.08-2.13a4.747 4.747 0 0 0-1.74-1.365c-.69-.32-1.465-.48-2.325-.48-.88 0-1.66.165-2.34.495a4.93 4.93 0 0 0-1.725 1.38c-.47.59-.83 1.3-1.08 2.13-.25.83-.375 1.745-.375 2.745 0 1.02.125 1.94.375 2.76.25.82.61 1.525 1.08 2.115a4.78 4.78 0 0 0 1.725 1.365c.68.32 1.46.48 2.34.48.86 0 1.635-.16 2.325-.48.69-.32 1.27-.775 1.74-1.365s.83-1.295 1.08-2.115c.25-.82.375-1.74.375-2.76 0-1.02-.125-1.945-.375-2.775Zm-24.405 5.235v7.95h-4.68v-7.89a166.9 166.9 0 0 1-3.885-6.36c-1.23-2.12-2.415-4.3-3.555-6.54h5.43a76.25 76.25 0 0 0 2.067 4.279 89.383 89.383 0 0 0 2.368 4.248c.84-1.416 1.641-2.832 2.402-4.248a65.053 65.053 0 0 0 2.103-4.279h5.16c-1.14 2.24-2.32 4.41-3.54 6.51-1.22 2.1-2.51 4.21-3.87 6.33Z"/></svg>